<svg xmlns="http://www.w3.org/2000/svg" xmlns:xlink="http://www.w3.org/1999/xlink" width="500" zoomAndPan="magnify" viewBox="0 0 375 374.999991" height="500" preserveAspectRatio="xMidYMid meet" version="1.0"><defs><g/><clipPath id="id1"><path d="M 83.289062 151.226562 L 291.789062 151.226562 L 291.789062 223.976562 L 83.289062 223.976562 Z M 83.289062 151.226562 " clip-rule="nonzero"/></clipPath></defs><g clip-path="url(#id1)"><path fill="#ffffff" d="M 287.101562 174.5625 C 287.011719 174.140625 286.929688 173.726562 286.8125 173.320312 L 286.457031 172.125 C 286.265625 171.335938 285.910156 170.597656 285.667969 169.863281 C 285.03125 168.425781 284.359375 167.082031 283.546875 165.832031 C 282.703125 164.609375 281.832031 163.433594 280.796875 162.394531 C 278.75 160.308594 276.347656 158.574219 273.496094 157.300781 L 272.960938 157.046875 L 272.410156 156.839844 C 272.035156 156.703125 271.660156 156.542969 271.277344 156.40625 C 270.5 156.195312 269.703125 155.878906 268.867188 155.695312 C 268.03125 155.484375 267.167969 155.316406 266.265625 155.167969 C 265.359375 155.023438 264.421875 154.914062 263.414062 154.796875 C 264.871094 153.394531 266.71875 152.453125 268.691406 151.859375 C 269.683594 151.558594 270.707031 151.433594 271.753906 151.292969 C 272.277344 151.230469 272.800781 151.253906 273.332031 151.242188 L 274.132812 151.242188 C 274.398438 151.253906 274.660156 151.292969 274.925781 151.316406 C 279.195312 151.710938 283.351562 153.804688 286.394531 156.957031 C 287.9375 158.527344 289.144531 160.394531 290.070312 162.363281 C 290.96875 164.359375 291.480469 166.5 291.660156 168.628906 C 291.683594 169.164062 291.667969 169.703125 291.667969 170.230469 C 291.660156 170.496094 291.667969 170.757812 291.648438 171.023438 C 291.625 171.285156 291.582031 171.546875 291.546875 171.808594 C 291.46875 172.332031 291.421875 172.847656 291.308594 173.355469 C 291.195312 173.867188 291.0625 174.367188 290.902344 174.859375 C 290.25 176.820312 289.257812 178.636719 287.816406 180.050781 C 287.667969 178.042969 287.472656 176.25 287.101562 174.5625 Z M 87.992188 174.5625 C 88.082031 174.140625 88.167969 173.726562 88.28125 173.320312 L 88.640625 172.125 C 88.832031 171.335938 89.183594 170.597656 89.425781 169.863281 C 90.0625 168.425781 90.738281 167.082031 91.546875 165.832031 C 92.394531 164.609375 93.265625 163.433594 94.296875 162.394531 C 96.347656 160.308594 98.75 158.574219 101.601562 157.300781 L 102.132812 157.046875 L 102.6875 156.839844 C 103.058594 156.703125 103.433594 156.542969 103.820312 156.40625 C 104.59375 156.195312 105.394531 155.878906 106.226562 155.695312 C 107.0625 155.484375 107.925781 155.316406 108.832031 155.167969 C 109.738281 155.023438 110.675781 154.914062 111.679688 154.796875 C 110.226562 153.394531 108.378906 152.453125 106.40625 151.859375 C 105.414062 151.558594 104.390625 151.433594 103.339844 151.292969 C 102.816406 151.230469 102.292969 151.253906 101.761719 151.242188 L 100.964844 151.242188 C 100.695312 151.253906 100.4375 151.292969 100.167969 151.316406 C 95.902344 151.710938 91.742188 153.804688 88.699219 156.957031 C 87.160156 158.527344 85.953125 160.394531 85.023438 162.363281 C 84.125 164.359375 83.617188 166.5 83.4375 168.628906 C 83.414062 169.164062 83.429688 169.703125 83.429688 170.230469 C 83.4375 170.496094 83.425781 170.757812 83.449219 171.023438 C 83.472656 171.285156 83.515625 171.546875 83.546875 171.808594 C 83.628906 172.332031 83.675781 172.847656 83.785156 173.355469 C 83.902344 173.867188 84.03125 174.367188 84.191406 174.859375 C 84.84375 176.820312 85.839844 178.636719 87.28125 180.050781 C 87.429688 178.042969 87.625 176.25 87.992188 174.5625 Z M 276.304688 160.671875 C 275.675781 161.550781 275.039062 162.425781 274.382812 163.289062 L 273.40625 164.59375 L 272.917969 165.25 L 272.398438 165.875 L 270.28125 168.359375 L 269.207031 169.597656 L 268.078125 170.777344 C 266.574219 172.355469 265.050781 173.9375 263.421875 175.394531 L 260.992188 177.617188 C 260.160156 178.324219 259.304688 179.015625 258.460938 179.71875 C 256.261719 181.515625 246.917969 191.792969 246.34375 192.480469 C 245.792969 193.1875 245.21875 193.878906 244.652344 194.578125 C 244.085938 195.28125 243.519531 195.984375 242.90625 196.640625 C 238.125 202.042969 232.597656 206.859375 226.488281 210.914062 C 225.71875 211.417969 224.964844 211.933594 224.179688 212.417969 L 221.796875 213.804688 C 220.222656 214.757812 218.554688 215.546875 216.898438 216.371094 C 213.585938 218.015625 210.105469 219.3125 206.574219 220.484375 C 205.703125 220.8125 204.789062 221.007812 203.890625 221.257812 L 201.1875 221.976562 C 199.371094 222.359375 197.546875 222.730469 195.71875 223.066406 C 195.703125 223.070312 195.683594 223.070312 195.667969 223.074219 L 192.90625 223.417969 C 191.976562 223.515625 191.050781 223.683594 190.113281 223.710938 L 187.308594 223.875 L 185.902344 223.957031 C 185.4375 223.976562 184.964844 223.960938 184.496094 223.957031 L 181.683594 223.902344 C 181.214844 223.886719 180.746094 223.894531 180.277344 223.859375 L 178.875 223.738281 C 177.007812 223.566406 175.132812 223.464844 173.289062 223.109375 L 170.515625 222.648438 C 169.59375 222.496094 168.6875 222.238281 167.777344 222.035156 L 165.046875 221.382812 C 164.144531 221.148438 163.261719 220.824219 162.371094 220.550781 L 159.710938 219.6875 C 158.839844 219.359375 157.980469 219.003906 157.113281 218.660156 C 156.25 218.316406 155.386719 217.972656 154.53125 217.613281 C 153.691406 217.214844 152.863281 216.796875 152.03125 216.390625 L 149.546875 215.15625 C 148.734375 214.71875 147.9375 214.246094 147.144531 213.777344 L 144.773438 212.363281 C 143.980469 211.890625 143.246094 211.339844 142.484375 210.832031 C 140.972656 209.792969 139.449219 208.773438 138.050781 207.597656 L 135.917969 205.886719 L 134.863281 205.023438 C 134.519531 204.726562 134.191406 204.410156 133.855469 204.101562 C 132.535156 202.855469 131.179688 201.660156 129.90625 200.378906 L 126.222656 196.421875 L 125.785156 195.9375 C 125.777344 195.929688 125.765625 195.917969 125.757812 195.90625 L 125.34375 195.402344 L 124.496094 194.355469 C 123.929688 193.65625 112.800781 181.199219 110.660156 179.429688 L 109.390625 178.390625 L 108.753906 177.871094 L 108.144531 177.320312 L 105.726562 175.105469 L 103.328125 172.882812 C 102.542969 172.128906 101.808594 171.3125 101.054688 170.53125 L 98.8125 168.160156 L 97.703125 166.972656 L 96.65625 165.722656 C 96.636719 165.699219 96.617188 165.675781 96.597656 165.652344 C 95.980469 164.890625 96.945312 163.871094 97.734375 164.449219 C 97.753906 164.460938 97.769531 164.476562 97.789062 164.488281 L 99.070312 165.449219 L 100.402344 166.351562 L 103.042969 168.164062 C 103.921875 168.761719 104.785156 169.382812 105.671875 169.96875 L 108.367188 171.660156 L 111.042969 173.359375 L 111.691406 173.773438 C 111.703125 173.78125 111.714844 173.789062 111.730469 173.796875 L 112.398438 174.171875 L 113.777344 174.953125 C 121.046875 179.195312 128.542969 182.910156 136.300781 185.8125 C 151.773438 191.691406 168.101562 194.675781 184.460938 194.609375 C 200.816406 194.539062 217.199219 191.574219 232.730469 185.808594 C 248.296875 180.070312 262.949219 171.644531 276.304688 160.671875 " fill-opacity="1" fill-rule="nonzero"/></g><g fill="#ffffff" fill-opacity="1"><g transform="translate(15.604902, 245.485325)"><g><path d="M 14.703125 -16.234375 L 14.03125 -12.25 L 9.28125 -12.25 L 9.28125 0 L 4.703125 0 L 4.703125 -12.25 L -0.359375 -12.25 L -0.359375 -16.234375 Z M 14.703125 -16.234375 "/></g></g></g><g fill="#ffffff" fill-opacity="1"><g transform="translate(39.307335, 245.485325)"><g><path d="M -0.890625 0 L 6.265625 -16.234375 L 10.0625 -16.234375 L 16.96875 0 L 12.34375 0 L 11.203125 -2.90625 L 4.921875 -2.90625 L 3.71875 0 Z M 6.46875 -6.671875 L 9.6875 -6.671875 L 8.109375 -10.65625 Z M 6.46875 -6.671875 "/></g></g></g><g fill="#ffffff" fill-opacity="1"><g transform="translate(65.203508, 245.485325)"><g><path d="M 1.375 0 L 1.375 -16.234375 L 5.9375 -16.234375 L 5.9375 -9.484375 L 11.734375 -16.234375 L 17.171875 -16.234375 L 10.078125 -8.09375 C 10.441406 -7.894531 10.769531 -7.640625 11.0625 -7.328125 C 11.351562 -7.023438 11.601562 -6.691406 11.8125 -6.328125 L 12.703125 -4.796875 C 13.097656 -4.078125 13.703125 -3.71875 14.515625 -3.71875 C 15.171875 -3.71875 15.757812 -3.878906 16.28125 -4.203125 L 17.328125 -0.6875 C 16.960938 -0.394531 16.472656 -0.160156 15.859375 0.015625 C 15.253906 0.191406 14.640625 0.28125 14.015625 0.28125 C 11.710938 0.28125 10.066406 -0.566406 9.078125 -2.265625 L 7.59375 -4.796875 C 7.34375 -5.210938 7.101562 -5.519531 6.875 -5.71875 C 6.644531 -5.925781 6.332031 -6.070312 5.9375 -6.15625 L 5.9375 0 Z M 1.375 0 "/></g></g></g><g fill="#ffffff" fill-opacity="1"><g transform="translate(91.373906, 245.485325)"><g><path d="M 13.21875 -12.328125 L 5.875 -12.328125 L 5.875 -10.109375 L 12.625 -10.109375 L 12.625 -6.1875 L 5.875 -6.1875 L 5.875 -3.90625 L 13.390625 -3.90625 L 13.125 0 L 1.375 0 L 1.375 -16.234375 L 13.21875 -16.234375 Z M 13.21875 -12.328125 "/></g></g></g><g fill="#ffffff" fill-opacity="1"><g transform="translate(114.710708, 245.485325)"><g/></g></g><g fill="#ffffff" fill-opacity="1"><g transform="translate(130.437957, 245.485325)"><g><path d="M 15.0625 -16.234375 L 9.625 -7.25 L 9.625 0 L 5.046875 0 L 5.046875 -7.015625 L -0.65625 -16.234375 L 4.4375 -16.234375 L 7.5 -11.171875 L 10.3125 -16.234375 Z M 15.0625 -16.234375 "/></g></g></g><g fill="#ffffff" fill-opacity="1"><g transform="translate(154.711675, 245.485325)"><g><path d="M 9.046875 0.234375 C 7.296875 0.242188 5.785156 -0.0664062 4.515625 -0.703125 C 3.253906 -1.347656 2.289062 -2.269531 1.625 -3.46875 C 0.957031 -4.675781 0.625 -6.125 0.625 -7.8125 C 0.625 -9.550781 0.988281 -11.066406 1.71875 -12.359375 C 2.445312 -13.660156 3.46875 -14.664062 4.78125 -15.375 C 6.09375 -16.09375 7.625 -16.453125 9.375 -16.453125 C 10.96875 -16.453125 12.363281 -16.117188 13.5625 -15.453125 C 14.757812 -14.785156 15.6875 -13.851562 16.34375 -12.65625 C 17.007812 -11.457031 17.34375 -10.050781 17.34375 -8.4375 C 17.34375 -6.726562 16.992188 -5.222656 16.296875 -3.921875 C 15.609375 -2.628906 14.640625 -1.617188 13.390625 -0.890625 C 12.140625 -0.160156 10.691406 0.210938 9.046875 0.234375 Z M 8.9375 -3.765625 C 10.113281 -3.765625 11.039062 -4.179688 11.71875 -5.015625 C 12.40625 -5.847656 12.75 -6.957031 12.75 -8.34375 C 12.75 -9.59375 12.425781 -10.585938 11.78125 -11.328125 C 11.132812 -12.078125 10.269531 -12.453125 9.1875 -12.453125 C 8.394531 -12.453125 7.703125 -12.257812 7.109375 -11.875 C 6.515625 -11.488281 6.050781 -10.957031 5.71875 -10.28125 C 5.394531 -9.601562 5.234375 -8.820312 5.234375 -7.9375 C 5.234375 -6.625 5.5625 -5.597656 6.21875 -4.859375 C 6.875 -4.128906 7.78125 -3.765625 8.9375 -3.765625 Z M 8.9375 -3.765625 "/></g></g></g><g fill="#ffffff" fill-opacity="1"><g transform="translate(182.413116, 245.485325)"><g><path d="M 11.859375 -16.234375 L 16.34375 -16.234375 L 16.390625 -7.34375 C 16.398438 -5.84375 16.09375 -4.519531 15.46875 -3.375 C 14.84375 -2.238281 13.96875 -1.347656 12.84375 -0.703125 C 11.71875 -0.0664062 10.410156 0.25 8.921875 0.25 C 6.472656 0.25 4.585938 -0.359375 3.265625 -1.578125 C 1.953125 -2.796875 1.296875 -4.601562 1.296875 -7 L 1.296875 -16.234375 L 5.875 -16.234375 L 5.875 -7.21875 C 5.875 -5.988281 6.160156 -5.101562 6.734375 -4.5625 C 7.304688 -4.03125 8.039062 -3.765625 8.9375 -3.765625 C 9.882812 -3.765625 10.617188 -4.054688 11.140625 -4.640625 C 11.671875 -5.222656 11.925781 -6.175781 11.90625 -7.5 Z M 11.859375 -16.234375 "/></g></g></g><g fill="#ffffff" fill-opacity="1"><g transform="translate(209.840356, 245.485325)"><g><path d="M 15.6875 -4.203125 L 16.734375 -0.6875 C 16.367188 -0.394531 15.878906 -0.160156 15.265625 0.015625 C 14.660156 0.191406 14.046875 0.28125 13.421875 0.28125 C 12.210938 0.28125 11.210938 0.0625 10.421875 -0.375 C 9.628906 -0.820312 8.988281 -1.453125 8.5 -2.265625 L 7 -4.796875 C 6.8125 -5.097656 6.632812 -5.328125 6.46875 -5.484375 C 6.300781 -5.640625 6.097656 -5.738281 5.859375 -5.78125 L 5.859375 0 L 1.375 0 L 1.375 -16.234375 L 6.859375 -16.234375 C 9.359375 -16.234375 11.207031 -15.757812 12.40625 -14.8125 C 13.601562 -13.863281 14.203125 -12.550781 14.203125 -10.875 C 14.203125 -9.6875 13.859375 -8.703125 13.171875 -7.921875 C 12.484375 -7.140625 11.578125 -6.585938 10.453125 -6.265625 C 11.023438 -6.078125 11.476562 -5.734375 11.8125 -5.234375 L 12.234375 -4.625 C 12.609375 -4.019531 13.191406 -3.71875 13.984375 -3.71875 C 14.273438 -3.71875 14.5625 -3.753906 14.84375 -3.828125 C 15.125 -3.898438 15.40625 -4.023438 15.6875 -4.203125 Z M 6.8125 -12.546875 L 5.859375 -12.546875 L 5.859375 -9.328125 L 7.015625 -9.328125 C 8.003906 -9.328125 8.691406 -9.457031 9.078125 -9.71875 C 9.472656 -9.988281 9.671875 -10.40625 9.671875 -10.96875 C 9.671875 -11.582031 9.40625 -12 8.875 -12.21875 C 8.351562 -12.4375 7.664062 -12.546875 6.8125 -12.546875 Z M 6.8125 -12.546875 "/></g></g></g><g fill="#ffffff" fill-opacity="1"><g transform="translate(235.256652, 245.485325)"><g/></g></g><g fill="#ffffff" fill-opacity="1"><g transform="translate(250.983901, 245.485325)"><g><path d="M 6.828125 0.234375 C 4.785156 0.234375 3.191406 -0.195312 2.046875 -1.0625 C 0.910156 -1.9375 0.265625 -3.207031 0.109375 -4.875 L 4.34375 -5.484375 C 4.375 -4.910156 4.628906 -4.441406 5.109375 -4.078125 C 5.585938 -3.722656 6.207031 -3.546875 6.96875 -3.546875 C 8.375 -3.546875 9.078125 -3.910156 9.078125 -4.640625 C 9.078125 -4.972656 8.878906 -5.242188 8.484375 -5.453125 C 8.097656 -5.660156 7.460938 -5.867188 6.578125 -6.078125 C 4.691406 -6.535156 3.304688 -7.144531 2.421875 -7.90625 C 1.535156 -8.664062 1.101562 -9.738281 1.125 -11.125 C 1.132812 -12.175781 1.410156 -13.101562 1.953125 -13.90625 C 2.492188 -14.707031 3.253906 -15.332031 4.234375 -15.78125 C 5.222656 -16.226562 6.378906 -16.453125 7.703125 -16.453125 C 9.335938 -16.453125 10.679688 -16.039062 11.734375 -15.21875 C 12.796875 -14.394531 13.40625 -13.273438 13.5625 -11.859375 L 9.5625 -11.171875 C 9.476562 -11.617188 9.242188 -11.984375 8.859375 -12.265625 C 8.472656 -12.546875 8.003906 -12.6875 7.453125 -12.6875 C 6.929688 -12.6875 6.515625 -12.582031 6.203125 -12.375 C 5.890625 -12.164062 5.734375 -11.890625 5.734375 -11.546875 C 5.734375 -11.222656 5.890625 -10.941406 6.203125 -10.703125 C 6.515625 -10.472656 7.109375 -10.25 7.984375 -10.03125 C 9.234375 -9.726562 10.28125 -9.378906 11.125 -8.984375 C 11.96875 -8.597656 12.601562 -8.097656 13.03125 -7.484375 C 13.46875 -6.878906 13.6875 -6.082031 13.6875 -5.09375 C 13.6875 -4.039062 13.398438 -3.113281 12.828125 -2.3125 C 12.265625 -1.519531 11.46875 -0.894531 10.4375 -0.4375 C 9.40625 0.0078125 8.203125 0.234375 6.828125 0.234375 Z M 6.828125 0.234375 "/></g></g></g><g fill="#ffffff" fill-opacity="1"><g transform="translate(274.732038, 245.485325)"><g><path d="M 1.421875 0 L 1.890625 -16.234375 L 5.625 -16.234375 L 11.0625 -5.640625 L 16.40625 -16.234375 L 20.140625 -16.234375 L 20.484375 0 L 16.0625 0 L 15.9375 -6.796875 L 12.453125 0 L 9.265625 0 L 5.8125 -6.671875 L 5.59375 0 Z M 1.421875 0 "/></g></g></g><g fill="#ffffff" fill-opacity="1"><g transform="translate(306.386806, 245.485325)"><g><path d="M 1.375 0 L 1.375 -16.234375 L 5.9375 -16.234375 L 5.9375 0 Z M 1.375 0 "/></g></g></g><g fill="#ffffff" fill-opacity="1"><g transform="translate(323.43944, 245.485325)"><g><path d="M 1.375 0 L 1.375 -16.234375 L 5.9375 -16.234375 L 5.9375 -3.984375 L 12.703125 -3.984375 L 12.4375 0 Z M 1.375 0 "/></g></g></g><g fill="#ffffff" fill-opacity="1"><g transform="translate(345.793641, 245.485325)"><g><path d="M 13.21875 -12.328125 L 5.875 -12.328125 L 5.875 -10.109375 L 12.625 -10.109375 L 12.625 -6.1875 L 5.875 -6.1875 L 5.875 -3.90625 L 13.390625 -3.90625 L 13.125 0 L 1.375 0 L 1.375 -16.234375 L 13.21875 -16.234375 Z M 13.21875 -12.328125 "/></g></g></g></svg>